<svg width="241" height="39" viewBox="0 0 241 39" fill="none" xmlns="http://www.w3.org/2000/svg">
<path fill-rule="evenodd" clip-rule="evenodd" d="M36.6502 33.4842C35.35 35.6512 32.2094 35.6511 30.9092 33.4842L12.7815 3.27127L48.8656 3.27127C51.4676 3.27127 53.0748 6.10989 51.7361 8.34111L36.6502 33.4842Z" fill="#FFD723"/>
<path fill-rule="evenodd" clip-rule="evenodd" d="M18.1277 33.4842C19.4279 35.6512 22.5685 35.6511 23.8687 33.4842L41.9964 3.27127L5.91239 3.27127C3.31037 3.27127 1.70317 6.10989 3.0419 8.34111L18.1277 33.4842Z" fill="white"/>
<path fill-rule="evenodd" clip-rule="evenodd" d="M12.7815 3.27124H41.9964L27.39 27.617L12.7815 3.27124Z" fill="#F6F6F6"/>
<path d="M85.48 14.8799C85.48 16.0532 85.1067 17.0532 84.36 17.8799C83.64 18.7066 82.56 19.2399 81.12 19.4799V19.6399C82.64 19.8266 83.8533 20.3466 84.76 21.1999C85.6933 22.0532 86.16 23.1466 86.16 24.4799C86.16 25.4132 85.9733 26.2799 85.6 27.0799C85.2533 27.8799 84.6933 28.5732 83.92 29.1599C83.1467 29.7466 82.1467 30.1999 80.92 30.5199C79.72 30.8399 78.2533 30.9999 76.52 30.9999H66.12V9.1599H76.52C78.2267 9.1599 79.7467 9.34657 81.08 9.7199C82.44 10.0666 83.5067 10.6532 84.28 11.4799C85.08 12.3066 85.48 13.4399 85.48 14.8799ZM80 24.1599C80 23.3066 79.6667 22.6932 79 22.3199C78.3333 21.9199 77.3333 21.7199 76 21.7199H72.08V26.8799H76.12C77.24 26.8799 78.16 26.6799 78.88 26.2799C79.6267 25.8532 80 25.1466 80 24.1599ZM79.44 15.3599C79.44 14.6666 79.1733 14.1599 78.64 13.8399C78.1067 13.5199 77.32 13.3599 76.28 13.3599H72.08V17.6799H75.6C76.8533 17.6799 77.8 17.5066 78.44 17.1599C79.1067 16.7866 79.44 16.1866 79.44 15.3599Z" fill="white"/>
<path d="M95.1162 31.3999C93.7296 31.3999 92.4896 31.2932 91.3962 31.0799C90.3296 30.8666 89.3296 30.5199 88.3962 30.0399V25.3999C89.3562 25.8266 90.3696 26.1999 91.4362 26.5199C92.5296 26.8132 93.6496 26.9599 94.7962 26.9599C95.7029 26.9599 96.4896 26.7999 97.1562 26.4799C97.8229 26.1332 98.3562 25.5866 98.7562 24.8399C99.1562 24.0932 99.3962 23.1332 99.4762 21.9599H91.2362V17.9999H99.4762C99.3696 16.3732 98.9696 15.1599 98.2762 14.3599C97.6096 13.5599 96.6096 13.1599 95.2762 13.1599C94.3429 13.1599 93.4362 13.2932 92.5562 13.5599C91.7029 13.7999 90.9162 14.0799 90.1962 14.3999L88.5162 10.3199C89.3696 9.94657 90.3962 9.5999 91.5962 9.2799C92.8229 8.93324 94.1296 8.7599 95.5162 8.7599C97.4362 8.7599 99.1562 9.09324 100.676 9.7599C102.196 10.4266 103.396 11.5599 104.276 13.1599C105.183 14.7599 105.636 16.9866 105.636 19.8399C105.636 22.4532 105.223 24.6266 104.396 26.3599C103.57 28.0666 102.37 29.3332 100.796 30.1599C99.2496 30.9866 97.3562 31.3999 95.1162 31.3999Z" fill="white"/>
<path d="M108.025 17.9199C108.025 14.6932 108.425 11.9599 109.225 9.7199C110.025 7.45324 111.292 5.65324 113.025 4.3199C114.758 2.9599 117.025 2.0399 119.825 1.5599C121.238 1.3199 122.665 1.1199 124.105 0.959903C125.572 0.773237 127.078 0.58657 128.625 0.399902L129.305 5.5999C128.638 5.6799 127.905 5.77324 127.105 5.8799C126.305 5.9599 125.492 6.05324 124.665 6.1599C123.865 6.2399 123.092 6.33324 122.345 6.4399C121.598 6.54657 120.918 6.6399 120.305 6.7199C119.318 6.8799 118.452 7.10657 117.705 7.3999C116.958 7.66657 116.332 8.05324 115.825 8.5599C115.318 9.06657 114.918 9.7599 114.625 10.6399C114.358 11.4932 114.185 12.5999 114.105 13.9599H114.385C114.705 13.4532 115.145 12.9466 115.705 12.4399C116.292 11.9332 117.012 11.5066 117.865 11.1599C118.718 10.8132 119.692 10.6399 120.785 10.6399C122.518 10.6399 124.025 10.9999 125.305 11.7199C126.585 12.4399 127.572 13.5066 128.265 14.9199C128.958 16.3332 129.305 18.0932 129.305 20.1999C129.305 22.6799 128.852 24.7466 127.945 26.3999C127.038 28.0532 125.785 29.3066 124.185 30.1599C122.585 30.9866 120.732 31.3999 118.625 31.3999C117.025 31.3999 115.572 31.1066 114.265 30.5199C112.958 29.9332 111.838 29.0666 110.905 27.9199C109.972 26.7732 109.252 25.3599 108.745 23.6799C108.265 21.9999 108.025 20.0799 108.025 17.9199ZM118.985 26.5599C119.838 26.5599 120.572 26.3732 121.185 25.9999C121.825 25.6266 122.318 25.0132 122.665 24.1599C123.038 23.3066 123.225 22.1599 123.225 20.7199C123.225 18.9866 122.932 17.6132 122.345 16.5999C121.785 15.5599 120.798 15.0399 119.385 15.0399C118.532 15.0399 117.732 15.2532 116.985 15.6799C116.265 16.0799 115.652 16.5466 115.145 17.0799C114.638 17.5866 114.292 18.0266 114.105 18.3999C114.105 19.4399 114.185 20.4532 114.345 21.4399C114.505 22.3999 114.772 23.2666 115.145 24.0399C115.518 24.8132 116.012 25.4266 116.625 25.8799C117.265 26.3332 118.052 26.5599 118.985 26.5599Z" fill="white"/>
<path d="M152.868 20.0399C152.868 21.8532 152.614 23.4666 152.108 24.8799C151.628 26.2932 150.921 27.4932 149.988 28.4799C149.081 29.4399 147.974 30.1732 146.668 30.6799C145.361 31.1599 143.881 31.3999 142.228 31.3999C140.708 31.3999 139.294 31.1599 137.988 30.6799C136.708 30.1732 135.601 29.4399 134.668 28.4799C133.734 27.4932 133.001 26.2932 132.468 24.8799C131.961 23.4666 131.708 21.8532 131.708 20.0399C131.708 17.6132 132.134 15.5732 132.988 13.9199C133.841 12.2399 135.068 10.9599 136.668 10.0799C138.268 9.1999 140.161 8.7599 142.348 8.7599C144.401 8.7599 146.214 9.1999 147.788 10.0799C149.361 10.9599 150.601 12.2399 151.508 13.9199C152.414 15.5732 152.868 17.6132 152.868 20.0399ZM137.788 20.0399C137.788 21.4799 137.934 22.6932 138.228 23.6799C138.548 24.6399 139.041 25.3732 139.708 25.8799C140.374 26.3599 141.241 26.5999 142.308 26.5999C143.374 26.5999 144.228 26.3599 144.868 25.8799C145.534 25.3732 146.014 24.6399 146.308 23.6799C146.628 22.6932 146.788 21.4799 146.788 20.0399C146.788 18.5999 146.628 17.3999 146.308 16.4399C146.014 15.4799 145.534 14.7599 144.868 14.2799C144.201 13.7999 143.334 13.5599 142.268 13.5599C140.694 13.5599 139.548 14.1066 138.828 15.1999C138.134 16.2666 137.788 17.8799 137.788 20.0399Z" fill="white"/>
<path d="M175.953 14.8799C175.953 16.0532 175.58 17.0532 174.833 17.8799C174.113 18.7066 173.033 19.2399 171.593 19.4799V19.6399C173.113 19.8266 174.327 20.3466 175.233 21.1999C176.167 22.0532 176.633 23.1466 176.633 24.4799C176.633 25.4132 176.447 26.2799 176.073 27.0799C175.727 27.8799 175.167 28.5732 174.393 29.1599C173.62 29.7466 172.62 30.1999 171.393 30.5199C170.193 30.8399 168.727 30.9999 166.993 30.9999H156.593V9.1599H166.993C168.7 9.1599 170.22 9.34657 171.553 9.7199C172.913 10.0666 173.98 10.6532 174.753 11.4799C175.553 12.3066 175.953 13.4399 175.953 14.8799ZM170.473 24.1599C170.473 23.3066 170.14 22.6932 169.473 22.3199C168.807 21.9199 167.807 21.7199 166.473 21.7199H162.553V26.8799H166.593C167.713 26.8799 168.633 26.6799 169.353 26.2799C170.1 25.8532 170.473 25.1466 170.473 24.1599ZM169.913 15.3599C169.913 14.6666 169.647 14.1599 169.113 13.8399C168.58 13.5199 167.793 13.3599 166.753 13.3599H162.553V17.6799H166.073C167.327 17.6799 168.273 17.5066 168.913 17.1599C169.58 16.7866 169.913 16.1866 169.913 15.3599Z" fill="white"/>
<path d="M186.31 17.7999C186.31 18.2532 186.283 18.8132 186.23 19.4799C186.203 20.1466 186.163 20.8266 186.11 21.5199C186.083 22.2132 186.043 22.8266 185.99 23.3599C185.936 23.8932 185.896 24.2666 185.87 24.4799L195.95 9.1599H203.11V30.9999H197.35V22.2799C197.35 21.5599 197.376 20.7732 197.43 19.9199C197.483 19.0399 197.536 18.2266 197.59 17.4799C197.67 16.7066 197.723 16.1199 197.75 15.7199L187.71 30.9999H180.55V9.1599H186.31V17.7999Z" fill="white"/>
<path d="M227.979 20.0399C227.979 21.8532 227.725 23.4666 227.219 24.8799C226.739 26.2932 226.032 27.4932 225.099 28.4799C224.192 29.4399 223.085 30.1732 221.779 30.6799C220.472 31.1599 218.992 31.3999 217.339 31.3999C215.819 31.3999 214.405 31.1599 213.099 30.6799C211.819 30.1732 210.712 29.4399 209.779 28.4799C208.845 27.4932 208.112 26.2932 207.579 24.8799C207.072 23.4666 206.819 21.8532 206.819 20.0399C206.819 17.6132 207.245 15.5732 208.099 13.9199C208.952 12.2399 210.179 10.9599 211.779 10.0799C213.379 9.1999 215.272 8.7599 217.459 8.7599C219.512 8.7599 221.325 9.1999 222.899 10.0799C224.472 10.9599 225.712 12.2399 226.619 13.9199C227.525 15.5732 227.979 17.6132 227.979 20.0399ZM212.899 20.0399C212.899 21.4799 213.045 22.6932 213.339 23.6799C213.659 24.6399 214.152 25.3732 214.819 25.8799C215.485 26.3599 216.352 26.5999 217.419 26.5999C218.485 26.5999 219.339 26.3599 219.979 25.8799C220.645 25.3732 221.125 24.6399 221.419 23.6799C221.739 22.6932 221.899 21.4799 221.899 20.0399C221.899 18.5999 221.739 17.3999 221.419 16.4399C221.125 15.4799 220.645 14.7599 219.979 14.2799C219.312 13.7999 218.445 13.5599 217.379 13.5599C215.805 13.5599 214.659 14.1066 213.939 15.1999C213.245 16.2666 212.899 17.8799 212.899 20.0399Z" fill="white"/>
<path d="M234.984 31.3199C233.438 31.3199 232.198 30.9066 231.264 30.0799C230.331 29.2532 229.864 28.2132 229.864 26.9599C229.864 25.6799 230.331 24.6266 231.264 23.7999C232.198 22.9466 233.438 22.5199 234.984 22.5199C236.504 22.5199 237.731 22.9466 238.664 23.7999C239.598 24.6266 240.064 25.6799 240.064 26.9599C240.064 28.2132 239.598 29.2532 238.664 30.0799C237.731 30.9066 236.504 31.3199 234.984 31.3199Z" fill="white"/>
</svg>
